<?xml version="1.0" encoding="UTF-8"?>
<svg xmlns="http://www.w3.org/2000/svg" xmlns:xlink="http://www.w3.org/1999/xlink" width="512pt" height="512pt" viewBox="0 0 512 512" version="1.1">
<g id="surface21">
<path style=" stroke:none;fill-rule:nonzero;fill:rgb(100%,64.705884%,0%);fill-opacity:1;" d="M 45.398438 305 C 59.800781 372.101562 71.800781 434 113.601562 480 L 34 480 C 15.300781 480 0 464.800781 0 446 L 0 66 C 0 47.300781 15.199219 32 34 32 L 91.699219 32 C 77.898438 44.601562 65.601562 59.199219 54.800781 75.601562 C 9.398438 145.601562 27.800781 222.398438 45.398438 305 Z M 478 32 L 387.800781 32 C 409.199219 53.398438 427 81.5 440.5 116.101562 L 303.398438 145.398438 C 288.5 116.398438 265.601562 92.101562 220.800781 101.5 C 196.199219 106.800781 179.800781 120.800781 172.5 136.101562 C 163.699219 154.800781 159.300781 175.898438 180.699219 276.398438 C 201.800781 376.601562 214.398438 394.101562 230.199219 407.601562 C 243.101562 418.699219 263.601562 424.601562 288.5 419.300781 C 333 409.898438 344.199219 378.601562 345.898438 346.101562 L 483.300781 316.5 C 486.5 388 464.601562 441.699219 425.898438 480.101562 L 478 480.101562 C 496.699219 480.101562 512 464.898438 512 446.101562 L 512 66 C 512 47.199219 496.800781 32 478 32 Z M 478 32 "/>
</g>
</svg>
